<svg width="60" height="60" viewBox="0 0 60 60" fill="none" xmlns="http://www.w3.org/2000/svg">
<path fill-rule="evenodd" clip-rule="evenodd" d="M27.6923 4.71877C14.7538 5.88492 4.61538 16.7585 4.61538 30C4.61538 44.0194 15.9815 55.3846 30 55.3846C37.1415 55.3846 43.5969 52.4366 48.2092 47.6849L28.5508 31.7948C28.0062 31.3566 27.6923 30.6969 27.6923 30V4.71877ZM32.3077 4.71877V27.6923H55.28C54.1846 15.5142 44.4862 5.81631 32.3077 4.71877ZM55.28 32.3077H36.5262L51.1138 44.0969C53.4092 40.6658 54.8892 36.6452 55.28 32.3077ZM0 30C0 13.4314 13.4308 0 30 0C46.5692 0 60 13.4314 60 30C60 37.1422 57.5015 43.7071 53.3323 48.8588C47.8369 55.6508 39.4246 60 30 60C13.4308 60 0 46.5686 0 30Z" fill="#02326B"/>
</svg>
