<svg width="66" height="60" viewBox="0 0 66 60" fill="none" xmlns="http://www.w3.org/2000/svg">
<path fill-rule="evenodd" clip-rule="evenodd" d="M16.1382 0C14.3333 0 12.6487 0.90553 11.6459 2.41574L0.572357 19.1118C-0.106433 20.1351 -0.186654 21.4438 0.359463 22.5416C6.4192 34.7225 14.8424 45.5638 25.1291 54.4266L30.5317 59.0813C31.951 60.3062 34.049 60.3062 35.4683 59.0813L40.8708 54.4266C51.1576 45.5638 59.5808 34.7225 65.6405 22.5416C66.1867 21.4438 66.1064 20.1351 65.4276 19.1118L54.3541 2.41574C53.3513 0.90553 51.6667 0 49.8617 0H16.1382ZM15.4964 4.99578C15.6415 4.7818 15.8821 4.65158 16.1382 4.65158H23.3581L17.4495 18.904C17.3137 19.2327 17.2088 19.5708 17.1409 19.915C14.9688 19.7537 12.7998 19.5584 10.6339 19.3289L6.29577 18.8699L15.4964 4.99578ZM6.09211 23.5246C11.6242 33.7271 18.9305 42.8597 27.6715 50.4883L18.0296 24.6441C15.3978 24.4611 12.772 24.2317 10.1494 23.9557L6.09211 23.5246ZM23.0804 24.9325L33 51.521L42.9196 24.9325C36.3106 25.2364 29.6893 25.2364 23.0804 24.9325ZM47.9703 24.6441L38.3284 50.4883C47.0694 42.8597 54.3757 33.7271 59.9078 23.5246L55.8505 23.9557C53.2279 24.2317 50.6022 24.4611 47.9703 24.6441ZM59.7042 18.8699L55.3661 19.3289C53.2001 19.5584 51.0311 19.7537 48.859 19.915C48.7911 19.5708 48.6862 19.2327 48.5505 18.904L42.6419 4.65158H49.8617C50.1178 4.65158 50.3585 4.7818 50.5035 4.99578L59.7042 18.8699ZM44.0828 20.2189C36.6994 20.6034 29.3005 20.6034 21.9172 20.2189L28.3719 4.65158H37.6281L44.0828 20.2189Z" fill="#02326B"/>
</svg>
