<svg width="70" height="60" viewBox="0 0 70 60" fill="none" xmlns="http://www.w3.org/2000/svg">
<path fill-rule="evenodd" clip-rule="evenodd" d="M33.7367 0.16918C34.5279 -0.0563933 35.3646 -0.0563933 36.1558 0.16918C37.8423 0.649749 39.5419 1.0943 41.2479 1.54218C49.2605 3.63772 57.3967 5.76924 64.6377 11.6897L67.9716 14.4163C69.3228 15.5212 70 17.1591 70 18.797V41.6812C70 43.0346 68.906 44.1331 67.5581 44.1331C66.2102 44.1331 65.1163 43.0346 65.1163 41.6812V25.5217L64.5856 25.9565C62.0786 28.0095 59.4609 29.6081 56.7781 30.9027C56.9051 31.2002 56.9767 31.5271 56.9767 31.8737V45.9115C56.9767 49.6155 54.7139 52.9402 51.2758 54.2871L38.2525 59.387C36.1623 60.2043 33.8377 60.2043 31.7475 59.387L18.7242 54.2871C15.2861 52.9402 13.0233 49.6155 13.0233 45.9115V31.8737C13.0233 31.5206 13.0981 31.1839 13.2316 30.8799C10.5293 29.5755 7.89211 27.9703 5.36234 25.9042L2.02838 23.1776C-0.673941 20.9644 -0.67722 16.6295 2.02511 14.4163L5.41441 11.6374C12.6 5.74965 20.6809 3.63121 28.6349 1.54547C30.3442 1.09759 32.047 0.653018 33.7367 0.16918ZM65.1163 18.8002C65.1163 18.506 64.9991 18.3098 64.8851 18.2183L61.5512 15.4919C54.5349 10.6241 48.2805 8.47614 40.3395 6.3806C38.5944 5.91964 36.7972 5.44567 34.9479 4.9226C33.0888 5.44894 31.2884 5.92615 29.5368 6.39038C21.6577 8.46957 14.7911 10.284 8.50091 15.4395L5.11489 18.215C5.00094 18.3065 4.88373 18.4994 4.88373 18.7937C4.88373 19.0879 5.00094 19.2841 5.11489 19.3756L8.44885 22.102C14.7912 27.2902 21.7195 29.1178 29.6605 31.2133C31.4088 31.6743 33.2028 32.1482 35.0521 32.6713C36.9079 32.145 38.7116 31.6678 40.4632 31.2035C48.3423 29.1243 55.2089 27.3099 61.4991 22.1544L64.8851 19.3789C64.9991 19.2874 65.1163 19.0945 65.1163 18.8002ZM41.3651 36.0484C44.9465 35.1069 48.554 34.1621 52.093 32.8707V45.9115C52.093 47.5952 51.0642 49.1056 49.5014 49.7202L36.4781 54.8168C35.5274 55.1895 34.4726 55.1895 33.5219 54.8168L20.4986 49.7202C18.9358 49.1056 17.907 47.5952 17.907 45.9115V32.8413C21.4851 34.149 25.1316 35.1037 28.7521 36.0517C30.4581 36.4996 32.1577 36.9442 33.8442 37.4247C34.6354 37.6503 35.4721 37.6503 36.2633 37.4247C37.953 36.9409 39.6558 36.4963 41.3651 36.0484Z" fill="#02326B"/>
</svg>
