<svg width="55" height="60" viewBox="0 0 55 60" fill="none" xmlns="http://www.w3.org/2000/svg">
<path fill-rule="evenodd" clip-rule="evenodd" d="M32.6303 6.95614C29.7632 4.22377 25.2368 4.22377 22.3698 6.95614L7.13431 21.478C6.76087 21.8335 6.50992 22.2971 6.4164 22.8024C4.59166 32.6874 4.45697 42.807 6.01826 52.7365L6.38874 55.0933H16.1905V34.7754C16.1905 33.4202 17.2963 32.322 18.6604 32.322H36.3397C37.7037 32.322 38.8095 33.4202 38.8095 34.7754V55.0933H48.6113L48.9818 52.7365C50.543 42.807 50.4084 32.6874 48.5833 22.8024C48.4901 22.2971 48.2391 21.8335 47.8657 21.478L32.6303 6.95614ZM18.9498 3.41579C23.7279 -1.1386 31.2722 -1.1386 36.0502 3.41579L51.2857 17.9373C52.4073 19.0063 53.1618 20.3988 53.442 21.9176C55.3672 32.3446 55.5091 43.0196 53.8626 53.4934L53.2671 57.2797C53.0208 58.8456 51.6634 60 50.0678 60H36.3397C34.9753 60 33.8698 58.9016 33.8698 57.5467V37.2287H21.1302V57.5467C21.1302 58.9016 20.0244 60 18.6604 60H4.93218C3.33664 60 1.97887 58.8456 1.73287 57.2797L1.13748 53.4934C-0.509098 43.0196 -0.36717 32.3446 1.55768 21.9176C1.83826 20.3988 2.59272 19.0063 3.71404 17.9373L18.9498 3.41579Z" fill="#02326B"/>
</svg>
