<svg width="18" height="18" viewBox="0 0 18 18" fill="none" xmlns="http://www.w3.org/2000/svg">
<path d="M2.75782 4.125L7.00958 8.54055M7.00958 8.54055L2.75782 13.875M7.00958 8.54055L7.97655 9.54473C8.55285 10.0826 9.44723 10.0826 10.0235 9.54473L11.04 8.54055M15.375 4.25782L11.04 8.54055M11.04 8.54055L15.375 13.7422M2.75782 13.875C3.02224 14.1084 3.36959 14.25 3.75 14.25H14.25C14.698 14.25 15.1001 14.0536 15.375 13.7422M2.75782 13.875C2.44641 13.6001 2.25 13.198 2.25 12.75V5.25C2.25 4.42157 2.92157 3.75 3.75 3.75H14.25C15.0784 3.75 15.75 4.42157 15.75 5.25V12.75C15.75 13.1304 15.6084 13.4777 15.375 13.7422" stroke="#691528" stroke-width="1.25" stroke-linecap="round"/>
</svg>
