<svg width="60" height="60" viewBox="0 0 60 60" fill="none" xmlns="http://www.w3.org/2000/svg">
<path fill-rule="evenodd" clip-rule="evenodd" d="M56.9006 23.7554C61.0331 26.9148 61.0331 33.0852 56.9006 36.2446C44.4155 45.801 30.4681 53.3309 15.5918 58.5539L12.8715 59.5096C7.67249 61.3343 2.18187 57.8578 1.47784 52.5482C-0.492614 37.7193 -0.492614 22.2807 1.47784 7.45181C2.18187 2.14224 7.67249 -1.33433 12.8715 0.49045L15.5918 1.44607C30.4681 6.66914 44.4155 14.199 56.9006 23.7554ZM53.0763 31.3594C53.9762 30.6715 53.9762 29.3285 53.0763 28.6406C41.112 19.4879 27.7561 12.2713 13.5005 7.26652L10.7802 6.3109C9.42633 5.8372 7.87245 6.74335 7.67249 8.25508C5.77702 22.5526 5.77702 37.4474 7.67249 51.7449C7.87245 53.2566 9.42633 54.1629 10.7802 53.6851L13.5005 52.7335C27.7561 47.7246 41.112 40.5121 53.0763 31.3594Z" fill="#02326B"/>
</svg>
