<svg width="18" height="18" viewBox="0 0 18 18" fill="none" xmlns="http://www.w3.org/2000/svg">
<path d="M14.25 7.69852C14.25 9.83317 11.6081 13.3684 10.0725 15.2428C9.51068 15.9286 8.48932 15.9286 7.9275 15.2428C6.39196 13.3684 3.75 9.83317 3.75 7.69852C3.75 4.68939 6.10051 2.25 9 2.25C11.8995 2.25 14.25 4.68939 14.25 7.69852Z" stroke="#691528" stroke-width="1.25" stroke-linecap="round"/>
<path d="M10.9503 7.50009C10.9503 8.57701 10.0772 9.45009 9.0003 9.45009C7.92338 9.45009 7.05029 8.57701 7.05029 7.50009C7.05029 6.42309 7.92338 5.55005 9.0003 5.55005C10.0772 5.55005 10.9503 6.42309 10.9503 7.50009Z" stroke="#691528" stroke-width="1.25" stroke-linecap="round"/>
</svg>
