<svg width="43" height="42" viewBox="0 0 43 42" fill="none" xmlns="http://www.w3.org/2000/svg">
<path d="M21.473 42C33.0379 42 42.4132 32.598 42.4132 21C42.4132 9.40204 33.0379 0 21.473 0C9.90808 0 0.532837 9.40204 0.532837 21C0.532837 32.598 9.90808 42 21.473 42Z" fill="#0082ED"/>
<path d="M26.1629 11.1255H28.8609V6.41326C28.3954 6.34907 26.7946 6.20459 24.9304 6.20459C21.0405 6.20459 18.3759 8.65825 18.3759 13.168V17.3184H14.0834V22.5863H18.3759V35.8414H23.6387V22.5876H27.7575L28.4114 17.3196H23.6375V13.6904C23.6387 12.1678 24.0475 11.1255 26.1629 11.1255Z" fill="white"/>
</svg>
