<svg width="42" height="42" viewBox="0 0 42 42" fill="none" xmlns="http://www.w3.org/2000/svg">
<path d="M20.9402 42C32.5051 42 41.8803 32.598 41.8803 21C41.8803 9.40204 32.5051 0 20.9402 0C9.37524 0 0 9.40204 0 21C0 32.598 9.37524 42 20.9402 42Z" fill="#E11491"/>
<path d="M21.2319 35.8413C21.134 35.8413 21.0361 35.8413 20.9376 35.8408C18.6212 35.8465 16.4808 35.7875 14.3993 35.6604C12.491 35.544 10.749 34.8826 9.36148 33.748C8.02267 32.6532 7.10839 31.1728 6.64416 29.3485C6.24012 27.7604 6.2187 26.2013 6.19816 24.6934C6.18327 23.6114 6.16797 22.3294 6.16479 21.0256C6.16797 19.7165 6.18327 18.4344 6.19816 17.3525C6.2187 15.8447 6.24012 14.2857 6.64416 12.6973C7.10839 10.873 8.02267 9.39266 9.36148 8.29783C10.749 7.16324 12.491 6.50185 14.3995 6.38539C16.481 6.25856 18.6218 6.19929 20.9433 6.20496C23.2604 6.19998 25.4001 6.25856 27.4816 6.38539C29.3899 6.50185 31.1319 7.16324 32.5194 8.29783C33.8585 9.39266 34.7725 10.873 35.2368 12.6973C35.6408 14.2854 35.6622 15.8447 35.6827 17.3525C35.6976 18.4344 35.7132 19.7165 35.7161 21.0202V21.0256C35.7132 22.3294 35.6976 23.6114 35.6827 24.6934C35.6622 26.2011 35.641 27.7601 35.2368 29.3485C34.7725 31.1728 33.8585 32.6532 32.5194 33.748C31.1319 34.8826 29.3899 35.544 27.4816 35.6604C25.4882 35.7821 23.4405 35.8413 21.2319 35.8413ZM20.9376 33.5255C23.2164 33.5309 25.3088 33.4733 27.3414 33.3493C28.7843 33.2614 30.0355 32.7917 31.0604 31.9536C32.0078 31.1787 32.6603 30.1096 32.9997 28.776C33.336 27.454 33.3554 26.0344 33.3741 24.6617C33.3888 23.587 33.4042 22.314 33.4073 21.0229C33.4042 19.7316 33.3888 18.4588 33.3741 17.3841C33.3554 16.0114 33.336 14.5918 32.9997 13.2696C32.6603 11.936 32.0078 10.8669 31.0604 10.092C30.0354 9.25408 28.7843 8.78441 27.3414 8.69648C25.3088 8.57232 23.2164 8.51513 20.943 8.52011C18.6647 8.51466 16.5722 8.57232 14.5396 8.69648C13.0966 8.78441 11.8454 9.25408 10.8205 10.092C9.87305 10.8669 9.22053 11.936 8.88119 13.2696C8.5448 14.5918 8.52541 16.0112 8.50671 17.3841C8.49205 18.4597 8.47675 19.7334 8.47358 21.0256C8.47675 22.3122 8.49205 23.5861 8.50671 24.6617C8.52541 26.0344 8.5448 27.454 8.88119 28.776C9.22053 30.1096 9.87305 31.1787 10.8205 31.9536C11.8454 32.7915 13.0966 33.2612 14.5396 33.3491C16.5722 33.4733 18.6651 33.5311 20.9376 33.5255ZM20.8826 28.2585C16.9044 28.2585 13.6676 25.0126 13.6676 21.0229C13.6676 17.0332 16.9044 13.7874 20.8826 13.7874C24.861 13.7874 28.0975 17.0332 28.0975 21.0229C28.0975 25.0126 24.861 28.2585 20.8826 28.2585ZM20.8826 16.1027C18.1774 16.1027 15.9764 18.31 15.9764 21.0229C15.9764 23.7358 18.1774 25.9431 20.8826 25.9431C23.588 25.9431 25.7888 23.7358 25.7888 21.0229C25.7888 18.31 23.588 16.1027 20.8826 16.1027ZM28.9056 11.472C27.9494 11.472 27.174 12.2494 27.174 13.2085C27.174 14.1677 27.9494 14.945 28.9056 14.945C29.8621 14.945 30.6372 14.1677 30.6372 13.2085C30.6372 12.2494 29.8621 11.472 28.9056 11.472Z" fill="white"/>
</svg>
