<svg width="43" height="42" viewBox="0 0 43 42" fill="none" xmlns="http://www.w3.org/2000/svg">
<path d="M21.7067 42C33.2716 42 42.6468 32.598 42.6468 21C42.6468 9.40204 33.2716 0 21.7067 0C10.1417 0 0.766479 9.40204 0.766479 21C0.766479 32.598 10.1417 42 21.7067 42Z" fill="#CD0013"/>
<path d="M22.1086 6.20459C14.0076 6.20581 9.70154 11.4108 9.70154 17.0862C9.70154 19.7178 11.1681 23.0013 13.5163 24.0422C14.1861 24.3448 14.0975 23.9756 14.6737 21.7651C14.7193 21.5812 14.6959 21.4219 14.5481 21.2502C11.1915 17.3567 13.8931 9.35229 21.6296 9.35229C32.8263 9.35229 30.7343 24.8894 23.5776 24.8894C21.7331 24.8894 20.3589 23.4372 20.7936 21.6404C21.3205 19.5004 22.3525 17.1998 22.3525 15.6575C22.3525 11.7701 16.5774 12.3468 16.5774 17.4974C16.5774 19.0892 17.1389 20.1635 17.1389 20.1635C17.1389 20.1635 15.2808 27.6913 14.936 29.0978C14.3524 31.4786 15.0148 35.3327 15.0727 35.6648C15.1084 35.8476 15.3128 35.9056 15.4273 35.755C15.6108 35.5142 17.8568 32.301 18.486 29.9782C18.715 29.1324 19.6545 25.6994 19.6545 25.6994C20.2739 26.8207 22.0594 27.7592 23.9618 27.7592C29.6211 27.7592 33.7117 22.7704 33.7117 16.58C33.6919 10.6452 28.6274 6.20459 22.1086 6.20459Z" fill="white"/>
</svg>
