<svg width="43" height="42" viewBox="0 0 43 42" fill="none" xmlns="http://www.w3.org/2000/svg">
<path d="M21.2394 42C32.8043 42 42.1795 32.598 42.1795 21C42.1795 9.40204 32.8043 0 21.2394 0C9.67443 0 0.299194 9.40204 0.299194 21C0.299194 32.598 9.67443 42 21.2394 42Z" fill="#F70000"/>
<path d="M25.7889 19.6937L19.26 16.1111C18.8847 15.9052 18.4409 15.9128 18.073 16.1315C17.7048 16.3504 17.4852 16.737 17.4852 17.1662V24.2697C17.4852 24.6968 17.7035 25.0828 18.0692 25.3019C18.2601 25.4162 18.4718 25.4737 18.684 25.4737C18.8783 25.4737 19.0732 25.4256 19.2524 25.3288L25.7814 21.808C26.169 21.5988 26.411 21.1948 26.4128 20.7532C26.4143 20.3116 26.1754 19.9058 25.7889 19.6937ZM19.217 23.376V18.067L24.0965 20.7446L19.217 23.376Z" fill="white"/>
<path d="M35.7983 15.0944L35.797 15.0808C35.7719 14.8423 35.5228 12.7204 34.4942 11.6412C33.3053 10.3718 31.9575 10.2176 31.3093 10.1437C31.2557 10.1376 31.2065 10.1319 31.1625 10.126L31.1109 10.1207C27.204 9.83575 21.3038 9.79685 21.2447 9.79662L21.2395 9.79639L21.2343 9.79662C21.1753 9.79685 15.275 9.83575 11.333 10.1207L11.2809 10.126C11.239 10.1317 11.1927 10.1369 11.1425 10.1428C10.5017 10.217 9.16829 10.3714 7.97604 11.6867C6.99636 12.7543 6.71319 14.8307 6.6841 15.0641L6.68075 15.0944C6.67192 15.1936 6.46338 17.5567 6.46338 19.9291V22.1467C6.46338 24.5191 6.67192 26.8822 6.68075 26.9816L6.68231 26.9966C6.70736 27.2313 6.95625 29.3142 7.98008 30.3939C9.09793 31.6208 10.5114 31.7831 11.2716 31.8704C11.3918 31.8841 11.4953 31.896 11.5659 31.9083L11.6342 31.9178C13.89 32.1331 20.9626 32.2392 21.2625 32.2434L21.2716 32.2437L21.2806 32.2434C21.3396 32.2433 27.2396 32.2044 31.1465 31.9195L31.1981 31.914C31.2475 31.9075 31.303 31.9016 31.3639 31.8953C32.001 31.8274 33.3272 31.6865 34.503 30.3891C35.4827 29.3212 35.7661 27.2448 35.795 27.0117L35.7983 26.9815C35.8071 26.882 36.0159 24.5191 36.0159 22.1467V19.9291C36.0157 17.5567 35.8071 15.1939 35.7983 15.0944ZM34.2839 22.1467C34.2839 24.3425 34.0927 26.6038 34.0746 26.8114C34.0011 27.3832 33.7024 28.6969 33.2251 29.2172C32.4892 30.0292 31.7332 30.1096 31.1813 30.1682C31.1145 30.1752 31.0527 30.182 30.9968 30.189C27.218 30.4631 21.5405 30.5051 21.279 30.5067C20.9857 30.5024 14.0165 30.3955 11.8295 30.1917C11.7174 30.1734 11.5963 30.1594 11.4687 30.145C10.8214 30.0706 9.93533 29.9688 9.25395 29.2172L9.23796 29.2C8.76899 28.7101 8.47883 27.4816 8.40506 26.8182C8.39133 26.6612 8.1952 24.3732 8.1952 22.1467V19.9291C8.1952 17.7358 8.3859 15.4769 8.40443 15.2651C8.49211 14.5915 8.79652 13.3574 9.25395 12.8586C10.0124 12.022 10.8121 11.9293 11.3411 11.868C11.3916 11.8621 11.4387 11.8567 11.4823 11.8511C15.3161 11.5756 21.0343 11.5347 21.2395 11.5332C21.4447 11.5345 27.1609 11.5756 30.9607 11.8511C31.0074 11.857 31.0584 11.8628 31.1131 11.8691C31.6572 11.9313 32.4795 12.0254 33.2341 12.8326L33.2411 12.8401C33.7101 13.3301 34.0002 14.58 34.074 15.2567C34.087 15.4048 34.2839 17.6978 34.2839 19.9291V22.1467Z" fill="white"/>
</svg>
