<svg width="53" height="23" viewBox="0 0 53 23" fill="none" xmlns="http://www.w3.org/2000/svg">
<path fill-rule="evenodd" clip-rule="evenodd" d="M37.6719 17.7592L42.9476 1.15947H44.2968L40.8303 12.0701L44.3663 21.8483H42.9996L40.1925 14.0837L37.7239 21.8483H36.3703V1.15947H37.6719V17.7592ZM53 3.21949V19.7883C53 20.9246 51.9632 21.8483 50.6876 21.8483H47.3642C46.0887 21.8483 45.056 20.9246 45.056 19.7883V3.21949C45.056 2.08321 46.0887 1.15947 47.3642 1.15947H50.6876C51.9632 1.15947 53 2.08321 53 3.21949ZM51.6984 3.21949C51.6984 2.72478 51.243 2.31894 50.6876 2.31894H47.3642C46.8089 2.31894 46.3576 2.72478 46.3576 3.21949V19.7883C46.3576 20.2869 46.8089 20.6888 47.3642 20.6888H50.6876C51.243 20.6888 51.6984 20.2869 51.6984 19.7883V3.21949ZM0 21.8483V3.15377C0 2.01362 1.03261 1.0938 2.31249 1.0938H4.13468C4.78546 1.0938 5.37544 1.33342 5.79628 1.71991C6.21278 1.33342 6.80286 1.0938 7.45364 1.0938H9.27582C10.5557 1.0938 11.5883 2.01362 11.5883 3.15377V21.8483H10.2867V3.15377C10.2867 2.6552 9.8355 2.25326 9.27582 2.25326H7.45364C6.89831 2.25326 6.44706 2.6552 6.44706 3.15377V21.8483H5.14549V3.15377C5.14549 2.6552 4.69001 2.25326 4.13468 2.25326H2.31249C1.75282 2.25326 1.30157 2.6552 1.30157 3.15377V21.8483H0ZM20.5822 3.21949V9.00523C20.5822 10.1415 19.5452 11.0652 18.2697 11.0652H14.9507C13.6752 11.0652 12.6382 10.1415 12.6382 9.00523V3.21949C12.6382 2.08321 13.6752 1.15947 14.9507 1.15947H18.2697C19.5452 1.15947 20.5822 2.08321 20.5822 3.21949ZM19.2806 3.21949C19.2806 2.72478 18.8294 2.31894 18.2697 2.31894H14.9507C14.391 2.31894 13.9398 2.72478 13.9398 3.21949V9.00523C13.9398 9.49993 14.391 9.90573 14.9507 9.90573H18.2697C18.8294 9.90573 19.2806 9.49993 19.2806 9.00523V3.21949ZM28.8776 13.0981V21.8483H27.576V11.9387H33.0079C34.2835 11.9387 35.3203 12.8585 35.3203 13.9948V21.8483H34.0187V13.9948C34.0187 13.5001 33.5676 13.0981 33.0079 13.0981H28.8776ZM15.775 14.6789H20.6039V15.8384H15.775V19.7767C15.775 20.2714 16.2306 20.6734 16.7859 20.6734H19.3197C19.875 20.6734 20.3305 20.2714 20.3305 19.7767V17.8017H21.6321V19.7767C21.6321 20.913 20.5952 21.8328 19.3197 21.8328H16.7859C15.5104 21.8328 14.4734 20.913 14.4734 19.7767V15.8384H12.6339V14.6789H14.4734V11.9387H15.775V14.6789ZM25.0466 0L24.9251 0.0850636C23.8491 0.850313 23.1289 2.60111 22.9337 4.67269C22.7297 6.80998 23.1419 8.9859 24.0444 10.4004L25.0683 12.0121C26.0749 13.5929 26.5694 16.0162 26.3438 18.4047C26.1659 20.2946 25.5498 21.9333 24.6951 23H22.9077L23.0595 22.8918C24.1311 22.1304 24.8557 20.3796 25.0509 18.3081C25.2548 16.1708 24.8383 13.9948 23.9402 12.5803L22.912 10.9686C21.9055 9.38783 21.4152 6.96458 21.6364 4.57607C21.8143 2.69773 22.4261 1.06671 23.2721 0H25.0466ZM27.7017 8.32113V9.00523C27.7017 9.49993 28.153 9.90573 28.7083 9.90573H32.1662C32.7215 9.90573 33.1727 9.49993 33.1727 9.00523V7.43223H34.4743V9.00523C34.4743 10.1415 33.4417 11.0652 32.1662 11.0652H28.7083C27.4328 11.0652 26.4002 10.1415 26.4002 9.00523V3.21949C26.4002 2.08321 27.4328 1.15947 28.7083 1.15947H33.0123C34.2878 1.15947 35.3246 2.08321 35.3246 3.21949V5.40703L27.7017 8.32113ZM34.0231 4.64948V3.21949C34.0231 2.72478 33.5719 2.31894 33.0123 2.31894H28.7083C28.153 2.31894 27.7017 2.72478 27.7017 3.21949V7.0573L34.0231 4.64948Z" fill="#C5C5C5"/>
</svg>
